<svg width="24" height="24" viewBox="0 0 24 24" xmlns="http://www.w3.org/2000/svg"><g id="Page-1" stroke="none" stroke-width="1" fill="none" fill-rule="evenodd"><g id="footer_icons" transform="translate(-336 -57)"><g id="apple-icon" transform="translate(336 57)"><g id="Group" transform="translate(4 3)" fill="#A4A4A4"><path d="M12.12 9.543c-.02-2.232 1.831-3.317 1.916-3.368-1.049-1.525-2.674-1.733-3.245-1.75-1.366-.143-2.69.815-3.385.815-.71 0-1.78-.8-2.934-.777-1.486.022-2.875.88-3.637 2.212-1.573 2.716-.4 6.707 1.107 8.903.754 1.075 1.634 2.275 2.787 2.233 1.128-.046 1.55-.717 2.91-.717 1.349 0 1.744.717 2.92.69 1.21-.02 1.972-1.08 2.7-2.165.87-1.232 1.22-2.446 1.234-2.508-.028-.01-2.35-.894-2.373-3.568zM9.899 2.981c.606-.757 1.021-1.786.906-2.83-.878.038-1.976.605-2.608 1.345-.56.652-1.06 1.721-.93 2.726.986.074 1.999-.496 2.632-1.24z" id="Shape"/></g><path id="Rectangle-2796" d="M0 0h24v24H0z"/></g></g></g></svg>