<?xml version="1.0" encoding="utf-8"?>
<!-- Generator: Adobe Illustrator 21.0.0, SVG Export Plug-In . SVG Version: 6.00 Build 0)  -->
<svg version="1.1" id="Layer_1" xmlns="http://www.w3.org/2000/svg" xmlns:xlink="http://www.w3.org/1999/xlink" x="0px" y="0px"
	 viewBox="0 0 20 20" style="enable-background:new 0 0 20 20;" xml:space="preserve">
<style type="text/css">
	.st0{fill:#FFFFFF;stroke:#FFFFFF;stroke-width:0.1695;stroke-miterlimit:10;}
</style>
<g>
	<path class="st0" d="M6,8.7c0.2,0,0.3-0.2,0.3-0.3V6.9c0-0.3,0.3-0.6,0.6-0.6h1.4c0.2,0,0.3-0.2,0.3-0.3c0-0.1-0.1-0.3-0.2-0.3H6.9
		c-0.6,0-1.2,0.5-1.2,1.2v1.4C5.8,8.5,5.9,8.7,6,8.7z"/>
	<path class="st0" d="M13.1,5.8h-1.4c-0.2,0-0.3,0.2-0.3,0.3c0,0.2,0.2,0.3,0.3,0.3h1.4c0.3,0,0.6,0.3,0.6,0.6v1.4
		c0,0.2,0.2,0.3,0.3,0.3c0.2,0,0.3-0.2,0.3-0.3V6.9C14.3,6.3,13.7,5.8,13.1,5.8z"/>
	<path class="st0" d="M13.9,11.3c-0.2,0-0.3,0.2-0.3,0.3V13c0,0.3-0.3,0.6-0.6,0.6h-1.4c-0.2,0-0.3,0.2-0.3,0.3
		c0,0.2,0.2,0.3,0.3,0.3h1.4c0.6,0,1.1-0.5,1.1-1.1v-1.4C14.3,11.5,14.1,11.3,13.9,11.3z"/>
	<path class="st0" d="M8.3,13.7H6.9c-0.3,0-0.6-0.3-0.6-0.6v-1.4c0-0.2-0.2-0.3-0.3-0.3c-0.1,0-0.3,0.1-0.3,0.2v1.5
		c0,0.6,0.5,1.1,1.2,1.1h1.4c0.2,0,0.3-0.2,0.3-0.3C8.7,13.8,8.5,13.7,8.3,13.7z"/>
	<path class="st0" d="M14,9.7H6.1c-0.2,0-0.3,0.2-0.3,0.3c0,0.2,0.2,0.3,0.3,0.3H14c0.2,0,0.3-0.2,0.3-0.3C14.3,9.8,14.1,9.7,14,9.7
		z"/>
</g>
</svg>
