<svg xmlns="http://www.w3.org/2000/svg" width="48" height="48" viewBox="0 0 48 48"><g fill="none" fill-rule="evenodd"><g fill="#FFF" transform="matrix(-1 0 0 1 32 14)"><circle cx="12" cy="18.5" r="2"/><circle cx="4" cy="18.5" r="2"/><path d="M12.883 12.785c-.01.086-.154.215-.234.215H2.923c-.085 0-.224-.125-.234-.215L2.027 7h11.517l-.66 5.785zM15.43.008a1 1 0 0 0-1.12.863l-.538 4.13H1.781C.68 5-.114 5.89.012 6.986L.7 13.011C.827 14.112 1.821 15 2.923 15h9.726c1.094 0 2.096-.89 2.221-1.988l.897-7.85.525-4.033A1 1 0 0 0 15.43.01z"/></g><path d="M0 0h48v48H0z"/></g></svg>