<svg width="24" height="24" viewBox="0 0 24 24" xmlns="http://www.w3.org/2000/svg"><g id="Page-1" stroke="none" stroke-width="1" fill="none" fill-rule="evenodd"><g id="new_checkout_components" transform="translate(-144 -85)"><g id="icon_dismiss2" transform="rotate(-90 126.5 -17.5)"><path id="bounds" d="M0 0h24v24H0z"/><path d="M13.128 12l5.637-5.638a.803.803 0 0 0 0-1.128.796.796 0 0 0-1.127 0L12 10.873 6.362 5.235a.803.803 0 0 0-1.128 0 .796.796 0 0 0 0 1.127L10.873 12l-5.637 5.638a.803.803 0 0 0 0 1.128.796.796 0 0 0 1.127 0L12 13.127l5.638 5.637a.803.803 0 0 0 1.128 0 .796.796 0 0 0 0-1.127L13.127 12z" id="Cancel" fill="#A4A4A4"/></g></g></g></svg>