<svg width="21" height="15" viewBox="0 0 21 15" xmlns="http://www.w3.org/2000/svg"><g id="Mockups" stroke="none" stroke-width="1" fill="none" fill-rule="evenodd"><g id="mFilter---Default" transform="translate(-16 -103)" fill="#EE50A4"><g id="Filter-Tabs" transform="translate(0 86)"><g id="btn_filter_small" transform="translate(16 17)"><path d="M4.005 2.105H.893V3.22h3.112A2.217 2.217 0 0 0 6.15 4.894c1.03 0 1.897-.711 2.143-1.674H20.81V2.105H8.292A2.217 2.217 0 0 0 6.149.432c-1.032 0-1.898.71-2.144 1.673zm8.852 5.02H.893V8.24h11.964a2.217 2.217 0 0 0 2.144 1.673c1.031 0 1.897-.711 2.143-1.673h3.666V7.124h-3.666a2.217 2.217 0 0 0-2.143-1.673c-1.031 0-1.898.711-2.144 1.673zm-8.852 5.019H.893v1.115h3.112a2.217 2.217 0 0 0 2.144 1.673c1.03 0 1.897-.71 2.143-1.673H20.81v-1.115H8.292a2.217 2.217 0 0 0-2.143-1.674c-1.032 0-1.898.711-2.144 1.674zM6.15 4.057c.764 0 1.383-.624 1.383-1.394 0-.77-.62-1.394-1.383-1.394-.764 0-1.383.624-1.383 1.394 0 .77.619 1.394 1.383 1.394zM15 9.077c.764 0 1.383-.625 1.383-1.395S15.764 6.288 15 6.288c-.764 0-1.383.624-1.383 1.394 0 .77.619 1.394 1.383 1.394zm-8.852 5.018c.764 0 1.383-.624 1.383-1.394 0-.77-.62-1.394-1.383-1.394-.764 0-1.383.624-1.383 1.394 0 .77.619 1.394 1.383 1.394z" id="Filter-Copy-4"/></g></g></g></g></svg>