<svg xmlns="http://www.w3.org/2000/svg" width="24" height="24" viewBox="0 0 24 24"><path fill="#ED54A4" d="M14.884 17.144l2.679.473c.002 0 .583-3.28 1.743-9.84 0-.002-1.473-.264-4.42-.785l1.39 7.884a2.01 2.01 0 0 1-1.392 2.268zm-5.699 1.02l-2.4.423a2.007 2.007 0 0 1-2.327-1.627L2.724 7.124a2.009 2.009 0 0 1 1.63-2.325l7.861-1.386a2.007 2.007 0 0 1 2.295 1.48l5.136.906a2.007 2.007 0 0 1 1.63 2.325l-1.734 9.836a2.009 2.009 0 0 1-2.327 1.627L9.354 18.2a2.04 2.04 0 0 1-.169-.038zm-2.757-1.551c0 .002 2.624-.459 7.871-1.382.003 0-.573-3.282-1.727-9.844 0-.002-2.624.459-7.871 1.382-.003 0 .573 3.282 1.727 9.844z"/></svg>