<svg width="120" height="120" viewBox="0 0 120 120" xmlns="http://www.w3.org/2000/svg" xmlns:xlink="http://www.w3.org/1999/xlink"><defs><path d="M38 84.5V30l6 3 6-3 6 3 6-3 6 3 6-3 6 3 6-3v54.006C86 88.42 82.413 92 78.003 92H32" id="path-1"/><mask id="mask-2" maskContentUnits="userSpaceOnUse" maskUnits="objectBoundingBox" x="0" y="0" width="54" height="62" fill="#fff"><use xlink:href="#path-1"/></mask><path d="M33 38c4.866 0 7-3.582 7-8H26c0 4.418 2.134 8 7 8z" id="path-3"/><filter x="-50%" y="-50%" width="200%" height="200%" filterUnits="objectBoundingBox" id="filter-4"><feOffset dx="-5" in="SourceAlpha" result="shadowOffsetInner1"/><feComposite in="shadowOffsetInner1" in2="SourceAlpha" operator="arithmetic" k2="-1" k3="1" result="shadowInnerInner1"/><feColorMatrix values="0 0 0 0 0.882352941 0 0 0 0 0.882352941 0 0 0 0 0.882352941 0 0 0 1 0" in="shadowInnerInner1"/></filter><mask id="mask-5" maskContentUnits="userSpaceOnUse" maskUnits="objectBoundingBox" x="0" y="0" width="14" height="8" fill="#fff"><use xlink:href="#path-3"/></mask><rect id="path-6" x="58" y="57" width="12" height="7" rx="4"/><filter x="-50%" y="-50%" width="200%" height="200%" filterUnits="objectBoundingBox" id="filter-7"><feOffset dy="-4" in="SourceAlpha" result="shadowOffsetInner1"/><feComposite in="shadowOffsetInner1" in2="SourceAlpha" operator="arithmetic" k2="-1" k3="1" result="shadowInnerInner1"/><feColorMatrix values="0 0 0 0 0.882352941 0 0 0 0 0.882352941 0 0 0 0 0.882352941 0 0 0 1 0" in="shadowInnerInner1"/></filter><mask id="mask-8" maskContentUnits="userSpaceOnUse" maskUnits="objectBoundingBox" x="0" y="0" width="12" height="7" fill="#fff"><use xlink:href="#path-6"/></mask></defs><g id="Page-1" stroke="none" stroke-width="1" fill="none" fill-rule="evenodd"><g id="order_listing_e-state" transform="translate(-120 -180)"><g id="ord_list_empty_2dp" transform="translate(120 180)"><use id="Shape" stroke="#A4A4A4" mask="url(#mask-2)" stroke-width="4" fill="#FFF" transform="matrix(1 0 0 -1 0 122)" xlink:href="#path-1"/><g id="text-lines" transform="matrix(1 0 0 -1 49 81.5)" fill="#E6E6E6"><rect id="Rectangle-path" x="0" y="0" width="18" height="3" rx="2"/><rect id="Rectangle-path" x="0" y="6" width="18" height="3" rx="2"/><rect id="Rectangle-path" x="21" y="0" width="6" height="3" rx="2"/><rect id="Rectangle-path" x="21" y="6" width="6" height="3" rx="2"/></g><g id="Oval-1" transform="matrix(1 0 0 -1 0 68)"><use fill="#F5F5F5" xlink:href="#path-3"/><use fill="#000" filter="url(#filter-4)" xlink:href="#path-3"/><use stroke="#A4A4A4" mask="url(#mask-5)" stroke-width="4" xlink:href="#path-3"/></g><g id="Rectangle-23" transform="matrix(1 0 0 -1 0 121)"><use fill="#F5F5F5" xlink:href="#path-6"/><use fill="#000" filter="url(#filter-7)" xlink:href="#path-6"/><use stroke="#A4A4A4" mask="url(#mask-8)" stroke-width="4" xlink:href="#path-6"/></g><path d="M70 51.037A3.094 3.094 0 0 0 76 51M52 51.037A3.094 3.094 0 0 0 58 51" id="Oval-2" stroke="#A4A4A4" stroke-width="2" stroke-linecap="round" stroke-linejoin="round"/><path d="M73 41l2.898.776M54.898 41L52 41.776" id="Line" stroke="#E1E1E1" stroke-width="2" stroke-linecap="round" stroke-linejoin="round"/><path d="M86.047 59.808c-.06-1.808-.06-6.823-.06-11.038C85.683 48.824 83 49 83 53s.497 6.59 3.047 6.808z" id="Path-15" fill="#FFF"/><path id="Path-15" stroke="#A4A4A4" stroke-width="2" stroke-linecap="round" stroke-linejoin="round" d="M85.683 52.378l3.94-.695-3.245 4.634 3.939-.695"/><path id="Path-15" stroke="#A4A4A4" stroke-width="2" stroke-linecap="round" stroke-linejoin="round" opacity=".6" d="M95 41.58h5l-5 5h5"/><path id="Path-15" stroke="#E1E1E1" stroke-width="2" stroke-linecap="round" stroke-linejoin="round" d="M106.567 29.525l5.908 1.042-6.95 4.866 5.908 1.042"/><circle id="Oval-3" stroke="#979797" fill="#E1E1E1" cx="79.5" cy="58.5" r="1.5"/><circle id="Oval-3" stroke="#979797" fill="#D8D8D8" cx="73.5" cy="61.5" r=".5"/></g></g></g></svg>