<svg width="24" height="24" viewBox="0 0 24 24" xmlns="http://www.w3.org/2000/svg"><g id="Page-1" stroke="none" stroke-width="1" fill="none" fill-rule="evenodd"><g id="footer_icons" transform="translate(-72 -57)"><g id="info-icon" transform="translate(72 57)"><path id="Rectangle-2796" d="M0 0h24v24H0z"/><path d="M12.167 2C7.104 2 3 5.73 3 10.333s4.104 8.334 9.167 8.334V22s9.166-4.468 9.166-11.667C21.333 5.731 17.23 2 12.167 2zm1.02 12.605h-2.04V8.799h2.04v5.806zm-1.016-7.44c-1.103 0-1.11-.814-1.11-1.002 0-.191-.001-.995 1.11-.995 1.11 0 1.109.804 1.109.995 0 .188-.007 1.003-1.11 1.003z" id="Shape" fill="#A4A4A4"/></g></g></g></svg>