<svg width="24" height="24" viewBox="0 0 24 24" xmlns="http://www.w3.org/2000/svg"><g id="Page-1" stroke="none" stroke-width="1" fill="none" fill-rule="evenodd"><g id="footer_icons" transform="translate(-666 -57)"><g id="instagram-icon" transform="translate(666 57)"><path id="container_16" d="M0 0h24v24H0z"/><path d="M7.045 5A2.056 2.056 0 0 0 5 7.045v10.91C5 19.076 5.924 20 7.045 20h10.91A2.056 2.056 0 0 0 20 17.955V7.045A2.056 2.056 0 0 0 17.955 5H7.045zm8.864 2.045h2.046v2.046h-2.046V7.045zM12.5 9.773a2.717 2.717 0 0 1 2.727 2.727 2.717 2.717 0 0 1-2.727 2.727A2.717 2.717 0 0 1 9.773 12.5 2.717 2.717 0 0 1 12.5 9.773zm-6.136 1.363h2.28a4.084 4.084 0 0 0-.235 1.364c0 2.251 1.84 4.09 4.091 4.09 2.251 0 4.09-1.839 4.09-4.09 0-.476-.082-.938-.233-1.364h2.28v6.819a.671.671 0 0 1-.682.681H7.045a.671.671 0 0 1-.681-.681v-6.819z" id="Shape" fill="#A4A4A4"/></g></g></g></svg>