<?xml version="1.0" encoding="UTF-8"?>
<svg width="24px" height="24px" viewBox="0 0 24 24" version="1.1" xmlns="http://www.w3.org/2000/svg" xmlns:xlink="http://www.w3.org/1999/xlink">
    <!-- Generator: sketchtool 50.2 (55047) - http://www.bohemiancoding.com/sketch -->
    <title>5C78B4F3-D4EF-4754-A743-F683F198A803</title>
    <desc>Created with sketchtool.</desc>
    <defs></defs>
    <g id="Icons-&amp;-illustrations" stroke="none" stroke-width="1" fill="none" fill-rule="evenodd">
        <g id="Design-Language-Icons" transform="translate(-488.000000, -974.000000)">
            <g id="ic_location" transform="translate(488.000000, 974.000000)">
                <rect id="Rectangle-7" fill="#D8D8D8" opacity="0" x="0" y="0" width="24" height="24"></rect>
                <path d="M12.0037406,4 C15.5156838,4 18.5,6.84723527 18.5,10.3352551 C18.5,12.751307 17.1149911,14.9843562 15.8059151,16.902319 C14.4968391,18.8202817 13.3054026,19.6195069 13.3054026,19.6195069 C12.9136263,19.8886495 12.4784921,20.0150082 12,19.9985829 C11.5215079,20.0150082 11.0863737,19.8886495 10.6945974,19.6195069 C10.6945974,19.6195069 9.5031609,18.8202817 8.19408487,16.902319 C6.88500885,14.9843562 5.5,12.751307 5.5,10.3352551 C5.5,6.84723527 8.49179731,4 12.0037406,4 Z" id="Combined-Shape" stroke="#000000" stroke-width="2"></path>
                <path d="M12,8 C10.6197917,8 9.5,9.11979167 9.5,10.5 C9.5,11.8802083 10.6197917,13 12,13 C13.3802083,13 14.5,11.8802083 14.5,10.5 C14.5,9.11979167 13.3802083,8 12,8 Z" id="Shape" fill="#000000" fill-rule="nonzero"></path>
            </g>
        </g>
    </g>
</svg>
