<svg width="24" height="24" viewBox="0 0 24 24" xmlns="http://www.w3.org/2000/svg"><g id="Page-1" stroke="none" stroke-width="1" fill="none" fill-rule="evenodd"><g id="footer_icons" transform="translate(-732 -57)" fill="#A4A4A4"><g id="pinterest-icon" transform="translate(732 57)"><path d="M11.946 4.5C7.993 4.5 6 7.428 6 9.87c0 1.478.542 2.793 1.704 3.283.19.08.361.003.416-.215.039-.151.13-.532.17-.69.056-.216.034-.291-.12-.48-.334-.407-.549-.936-.549-1.685 0-2.172 1.573-4.116 4.097-4.116 2.234 0 3.461 1.41 3.461 3.294 0 2.478-1.061 4.57-2.637 4.57-.87 0-1.522-.744-1.313-1.656.25-1.089.734-2.264.734-3.05 0-.704-.365-1.29-1.122-1.29-.89 0-1.605.95-1.605 2.224 0 .812.266 1.36.266 1.36l-1.07 4.684c-.318 1.39-.048 3.094-.025 3.266.013.102.14.126.197.05.083-.111 1.142-1.463 1.503-2.813.101-.383.585-2.363.585-2.363.289.57 1.134 1.071 2.032 1.071 2.675 0 4.49-2.518 4.49-5.89-.001-2.55-2.091-4.924-5.268-4.924" id="icon-pinterest"/></g></g></g></svg>