<svg width="24" height="24" viewBox="0 0 24 24" xmlns="http://www.w3.org/2000/svg"><g id="Page-1" stroke="none" stroke-width="1" fill="none" fill-rule="evenodd"><g id="footer_icons" transform="translate(-402 -57)"><g id="play-icon" transform="translate(402 57)"><path id="Rectangle-2796" d="M0 0h24v24H0z"/><path d="M6.467 20c-.283-.077-.467-.36-.467-.796V4.777c0-.405.156-.678.403-.777l7.051 8.04L6.467 20zm.97-.306l8.488-4.837-2.067-2.357-6.42 7.194zm8.547-10.536l-8.37-4.77 6.256 7.178 2.114-2.408zm.567.324l3.279 1.869c.62.354.626.924 0 1.281l-3.362 1.916-2.192-2.516 2.275-2.55z" id="Google-Play-Vector-2" fill="#A4A4A4"/></g></g></g></svg>