<svg width="24" height="24" viewBox="0 0 24 24" xmlns="http://www.w3.org/2000/svg"><g id="Page-1" stroke="none" stroke-width="1" fill="none" fill-rule="evenodd"><g id="footer_icons" transform="translate(-600 -57)"><g id="pinterest-icon" transform="translate(600 57)"><path id="container_16" d="M0 0h24v24H0z"/><path d="M19.5 7.448a6.133 6.133 0 0 1-1.767.486 3.095 3.095 0 0 0 1.353-1.708 6.149 6.149 0 0 1-1.955.749A3.069 3.069 0 0 0 14.885 6c-1.986 0-3.447 1.86-2.998 3.79a8.728 8.728 0 0 1-6.343-3.225 3.097 3.097 0 0 0 .953 4.122 3.056 3.056 0 0 1-1.394-.386 3.088 3.088 0 0 0 2.468 3.066 3.074 3.074 0 0 1-1.39.053 3.082 3.082 0 0 0 2.875 2.144A6.175 6.175 0 0 1 4.5 16.843a8.69 8.69 0 0 0 4.717 1.387c5.714 0 8.942-4.842 8.747-9.184A6.263 6.263 0 0 0 19.5 7.448" id="icon-twitter" fill="#A4A4A4"/></g></g></g></svg>